<?xml version="1.0" encoding="UTF-8"?>
<svg width="302px" height="302px" viewBox="0 0 302 302" version="1.1" xmlns="http://www.w3.org/2000/svg" xmlns:xlink="http://www.w3.org/1999/xlink">
    <!-- Generator: Sketch 59.1 (86144) - https://sketch.com -->
    <title>编组</title>
    <desc>Created with Sketch.</desc>
    <g id="页面-1" stroke="none" stroke-width="1" fill="none" fill-rule="evenodd">
        <g id="编组" fill="#58E7A3" fill-rule="nonzero">
            <path d="M150.823922,40.0024256 L229.186554,72.4612904 L261.645418,150.823922 L229.186554,229.186554 L150.823922,261.645418 L72.4612904,229.186554 L40.0024256,150.823922 L72.4612904,72.4612904 L150.823922,40.0024256 Z M150.823922,57.6454184 L84.9367703,84.9367703 L57.6454184,150.823922 L84.9367703,216.711074 L150.823922,244.002426 L216.711074,216.711074 L244.002426,150.823922 L216.711074,84.9367703 L150.823922,57.6454184 Z" id="内圈" opacity="0.200000003"></path>
            <path d="M150.823922,21.6235883 L242.182354,59.4654899 L280.024256,150.823922 L242.182354,242.182354 L150.823922,280.024256 L59.4654899,242.182354 L21.6235883,150.823922 L59.4654899,59.4654899 L150.823922,21.6235883 Z M150.823922,40.0242557 L72.4767266,72.4767266 L40.0242557,150.823922 L72.4767266,229.171117 L150.823922,261.623588 L229.171117,229.171117 L261.623588,150.823922 L229.171117,72.4767266 L150.823922,40.0242557 Z" id="中圈" opacity="0.5"></path>
            <path d="M150.823922,0 L257.47254,44.175304 L301.647844,150.823922 L257.47254,257.47254 L150.823922,301.647844 L44.175304,257.47254 L-5.68434189e-14,150.823922 L44.175304,44.175304 L150.823922,0 Z M150.823922,21.647844 L59.4826413,59.4826413 L21.647844,150.823922 L59.4826413,242.165203 L150.823922,280 L242.165203,242.165203 L280,150.823922 L242.165203,59.4826413 L150.823922,21.647844 Z" id="外圈"></path>
            <polygon id="光" points="212.542383 219.949211 269.110925 276.517754 280.424634 265.204045 223.856091 208.635503"></polygon>
        </g>
    </g>
</svg>